Coordinates
version=1
nRows=18
nColumns=26
inDegrees=yes

Units are S.I. units (second, meters, Newtons, ...)
Angles are in degrees.

endheader
time	pelvis_tilt	pelvis_list	pelvis_rotation	pelvis_tx	pelvis_ty	pelvis_tz	hip_flexion_r	hip_adduction_r	hip_rotation_r	knee_angle_r	knee_angle_r_beta	ankle_angle_r	subtalar_angle_r	mtp_angle_r	hip_flexion_l	hip_adduction_l	hip_rotation_l	knee_angle_l	knee_angle_l_beta	ankle_angle_l	subtalar_angle_l	mtp_angle_l	lumbar_extension	lumbar_bending	lumbar_rotation
      0.80666667	     -3.43463034	     -0.65967876	      2.09462306	      2.53183646	      0.93831470	      1.25025100	     -8.39184692	      2.69894276	    -10.11190096	      3.71953162	      0.06491807	     26.32761517	      1.78504091	      0.00000000	     22.15122415	     -2.31912295	      2.69176721	      4.92470242	      0.08595227	     -8.68051337	    -16.20753078	      0.00000000	      0.00000000	      0.00000000	      0.00000000
      0.81333333	     -3.51708132	     -0.45573467	      2.05720465	      2.53282264	      0.93841463	      1.24946872	     -8.52089815	      2.41507401	    -10.12684960	      3.85621229	      0.06730360	     26.22636944	      1.71840561	      0.00000000	     22.11206819	     -2.12639454	      2.43553485	      5.07543788	      0.08858310	     -8.93575776	    -16.71631504	      0.00000000	      0.00000000	      0.00000000	      0.00000000
      0.82000000	     -3.48043655	     -0.27102512	      2.04836723	      2.53387552	      0.93869515	      1.24865033	     -8.77776310	      2.16782064	    -10.18733709	      3.99494959	      0.06972502	     26.19907801	      1.58732196	      0.00000000	     22.06851443	     -1.96250824	      1.93193814	      5.55499017	      0.09695287	     -8.79343690	    -16.61689999	      0.00000000	      0.00000000	      0.00000000	      0.00000000
      0.82666667	     -3.54568585	     -0.10530425	      2.06814523	      2.53475683	      0.93890263	      1.24772285	     -8.93303777	      1.92556718	    -10.22750355	      4.11323238	      0.07178945	     26.00663823	      1.63886216	      0.00000000	     22.12026700	     -1.73931986	      1.93117965	      6.00337440	      0.10477865	     -9.04140803	    -17.54411940	      0.00000000	      0.00000000	      0.00000000	      0.00000000
      0.83333333	     -3.57982598	      0.05741521	      2.05911039	      2.53563107	      0.93930768	      1.24693349	     -9.09888692	      1.71158823	     -9.91928130	      4.26090096	      0.07436675	     25.90423549	      0.97730681	      0.00000000	     22.27696647	     -1.58634123	      1.44731607	      6.82844447	      0.11917884	     -8.22401217	    -16.87149875	      0.00000000	      0.00000000	      0.00000000	      0.00000000
      0.84000000	     -3.49499056	      0.31388449	      2.01404043	      2.53687570	      0.93993771	      1.24599516	     -9.38154881	      1.32874245	    -10.42735817	      4.45190902	      0.07770047	     25.60420304	      1.70774946	      0.00000000	     22.07109533	     -1.23361690	      1.79644024	      7.24865486	      0.12651289	     -8.26777506	    -17.91305316	      0.00000000	      0.00000000	      0.00000000	      0.00000000
      0.84666667	     -3.44915410	      0.53470973	      2.01489535	      2.53787869	      0.94057914	      1.24508052	     -9.67504932	      1.03349100	    -10.28230081	      4.51873240	      0.07886676	     25.25993307	      1.44892579	      0.00000000	     22.15102102	     -1.00270331	      1.26280640	      8.06539434	      0.14076769	     -7.49167629	    -17.10298438	      0.00000000	      0.00000000	      0.00000000	      0.00000000
      0.85333333	     -3.44506992	      0.66069069	      2.08705826	      2.53878319	      0.94114095	      1.24400986	     -9.76699740	      0.78270374	    -10.76556978	      4.88870667	      0.08532403	     25.18534344	      1.88780544	      0.00000000	     22.18674764	     -0.75652157	      1.57050770	      8.64951244	      0.15096247	     -7.31971701	    -17.61312094	      0.00000000	      0.00000000	      0.00000000	      0.00000000
      0.86000000	     -3.33997365	      0.84255392	      2.06977180	      2.53973734	      0.94194226	      1.24302160	    -10.00532990	      0.48141267	    -10.91741548	      5.16204012	      0.09009460	     24.92390121	      1.86073108	      0.00000000	     22.09979953	     -0.54337039	      1.29852843	      9.20857886	      0.16072002	     -6.97107156	    -17.34418623	      0.00000000	      0.00000000	      0.00000000	      0.00000000
      0.86666667	     -3.21626445	      0.98632993	      2.12032430	      2.54082557	      0.94275748	      1.24181457	    -10.30518857	      0.22073763	    -10.95948902	      5.39108513	      0.09409219	     24.70509474	      1.89765881	      0.00000000	     21.95765202	     -0.35510501	      0.96532304	      9.69745753	      0.16925256	     -6.58466793	    -16.84346560	      0.00000000	      0.00000000	      0.00000000	      0.00000000
      0.87333333	     -3.17872712	      1.09664859	      2.10390717	      2.54183782	      0.94342950	      1.24066478	    -10.42257557	     -0.03050241	    -11.04074731	      5.77014826	      0.10070809	     24.45338692	      1.93392245	      0.00000000	     21.82571875	     -0.19921461	      0.76677936	     10.05634306	      0.17551630	     -6.28681186	    -16.73551318	      0.00000000	      0.00000000	      0.00000000	      0.00000000
      0.88000000	     -3.10526412	      1.14546104	      2.10423708	      2.54279933	      0.94415913	      1.23948063	    -10.52766709	     -0.25332273	    -11.37687476	      6.22804362	      0.10869987	     24.21395368	      2.40195912	      0.00000000	     21.58318752	     -0.08861037	      0.69919114	     10.27461143	      0.17932580	     -6.14934590	    -16.98450295	      0.00000000	      0.00000000	      0.00000000	      0.00000000
      0.88666667	     -2.99601367	      1.25278076	      2.07442045	      2.54379338	      0.94492065	      1.23829204	    -10.67689797	     -0.55699756	    -11.65469881	      6.70438659	      0.11701362	     23.84624604	      2.69343245	      0.00000000	     21.19047731	      0.11065216	      0.82450198	     10.29360109	      0.17965723	     -6.11080980	    -17.52165768	      0.00000000	      0.00000000	      0.00000000	      0.00000000
      0.89333333	     -2.97231328	      1.25957009	      2.03021496	      2.54463785	      0.94558988	      1.23699000	    -10.69600213	     -0.76156673	    -11.77792190	      7.19436230	      0.12556531	     23.38766178	      2.88519096	      0.00000000	     20.93818865	      0.21037005	      0.82529271	     10.37235579	      0.18103176	     -5.99716948	    -17.85102700	      0.00000000	      0.00000000	      0.00000000	      0.00000000
      0.90000000	     -2.91185378	      1.30551665	      1.91692222	      2.54561342	      0.94631668	      1.23572065	    -10.75635244	     -1.02250467	    -11.72875765	      7.68819674	      0.13418435	     23.06093828	      2.90609638	      0.00000000	     20.58268079	      0.33192664	      0.75611937	     10.38166560	      0.18119425	     -5.78992964	    -17.94143362	      0.00000000	      0.00000000	      0.00000000	      0.00000000
      0.90666667	     -2.90107656	      1.32116114	      1.78700407	      2.54649043	      0.94699382	      1.23442856	    -10.73183350	     -1.26546366	    -11.62505227	      8.22878771	      0.14361944	     22.56802527	      3.09492856	      0.00000000	     20.25947464	      0.44208561	      0.80649538	     10.33859388	      0.18044250	     -5.64439010	    -18.12246135	      0.00000000	      0.00000000	      0.00000000	      0.00000000
      0.91333333	     -2.89538012	      1.33830624	      1.65473393	      2.54736929	      0.94762052	      1.23300970	    -10.64051744	     -1.55893678	    -11.80242119	      8.87322146	      0.15486693	     22.30479368	      3.59507394	      0.00000000	     19.88139122	      0.60429756	      1.11748569	     10.17103955	      0.17751813	     -5.72019131	    -18.79294531	      0.00000000	      0.00000000	      0.00000000	      0.00000000
      0.92000000	     -2.94409817	      1.34115515	      1.46549693	      2.54823000	      0.94813163	      1.23170033	    -10.52137520	     -1.79317480	    -11.47790197	      9.42325240	      0.16446678	     21.91468818	      3.42368535	      0.00000000	     19.61310579	      0.68455068	      1.01647459	     10.11286536	      0.17650280	     -5.38054882	    -18.80048870	      0.00000000	      0.00000000	      0.00000000	      0.00000000
